<svg xmlns="http://www.w3.org/2000/svg" width="117.442" height="46.317" viewBox="0 0 137.875 54.375">
  <metadata><?xpacket begin="﻿" id="W5M0MpCehiHzreSzNTczkc9d"?>
<x:xmpmeta xmlns:x="adobe:ns:meta/" x:xmptk="Adobe XMP Core 5.6-c138 79.159824, 2016/09/14-01:09:01        ">
   <rdf:RDF xmlns:rdf="http://www.w3.org/1999/02/22-rdf-syntax-ns#">
      <rdf:Description rdf:about=""/>
   </rdf:RDF>
</x:xmpmeta>
                                                                                                    
                                                                                                    
                                                                                                    
                                                                                                    
                                                                                                    
                                                                                                    
                                                                                                    
                                                                                                    
                                                                                                    
                                                                                                    
                                                                                                    
                                                                                                    
                                                                                                    
                                                                                                    
                                                                                                    
                                                                                                    
                                                                                                    
                                                                                                    
                                                                                                    
                                                                                                    
                           
<?xpacket end="w"?></metadata>
<defs>
    <style>
      .cls-1 {
        fill: #fdf161;
        fill-rule: evenodd;
      }
    </style>
  </defs>
  <path id="Scout" class="cls-1" d="M10.17,64.92a12.324,12.324,0,0,1-3.93-2.4A8.489,8.489,0,0,1,3,55.83a9.676,9.676,0,0,1,2.52-6.72,8.2,8.2,0,0,1,6.36-2.79q3.839,0,5.58,1.74a4.615,4.615,0,0,1,1.56,3.63,6.3,6.3,0,0,1-1.32,3.96,4.214,4.214,0,0,1-3.51,1.71,4.26,4.26,0,0,1-3.33-1.26,4.52,4.52,0,0,1-1.32-3.48L8.4,52.56a1.926,1.926,0,0,0,0,.72,5.573,5.573,0,0,0,1.62,3.6,5.455,5.455,0,0,0,4.2,1.68,5.206,5.206,0,0,0,4.29-2.1,7.56,7.56,0,0,0,1.65-4.8,6.028,6.028,0,0,0-2.04-4.59q-2.04-1.89-6.3-1.89a9.191,9.191,0,0,0-7.11,3.15,10.877,10.877,0,0,0-2.85,7.56,9.454,9.454,0,0,0,3.6,7.47q4.14,3.6,12.27,3.6T31.17,62.7a13.562,13.562,0,0,0,5.31-11.1,10.241,10.241,0,0,0-2.19-6.51,30.455,30.455,0,0,0-6.6-5.85,58.97,58.97,0,0,1-5.61-4.2,19.276,19.276,0,0,0,7.26-3.36,7.373,7.373,0,0,0,3.84.9,8.777,8.777,0,0,0,6.78-2.73,9.23,9.23,0,0,0,2.52-6.48,8.332,8.332,0,0,0-2.76-6.33,12.368,12.368,0,0,0-8.64-2.94,20.72,20.72,0,0,0-13.92,4.86,15.911,15.911,0,0,0-5.7,12.72,12.438,12.438,0,0,0,.12,2.04,8.84,8.84,0,0,1-5.94-5.88,11.866,11.866,0,0,1-.6-3.78,15.449,15.449,0,0,1,.6-4.14,11.483,11.483,0,0,1,4.08-6.36L9.06,12.6a13.019,13.019,0,0,0-4.5,6.96,16.538,16.538,0,0,0-.66,4.5,12.987,12.987,0,0,0,.66,4.14,10.175,10.175,0,0,0,7.2,6.78,11.478,11.478,0,0,0,2.7,5.16,20.928,20.928,0,0,0,4.41,3.78q2.37,1.5,4.65,3.03a13.514,13.514,0,0,1,3.81,3.87,9.644,9.644,0,0,1,1.53,5.4,8.084,8.084,0,0,1-3.51,6.84q-3.51,2.579-9.81,2.58A16.331,16.331,0,0,1,10.17,64.92ZM28.5,31.02a21.309,21.309,0,0,1-7.44,3.24q-3.24-2.219-3.24-7.08a11.324,11.324,0,0,1,5.22-9.6,13.92,13.92,0,0,1,8.16-2.34,11.149,11.149,0,0,1,7.74,2.64,7.371,7.371,0,0,1,2.4,5.55,8.181,8.181,0,0,1-2.22,5.7,7.655,7.655,0,0,1-5.94,2.43,6.59,6.59,0,0,1-2.76-.6q4.379-3.9,4.38-8.31t-4.02-4.41a4.418,4.418,0,0,0-3.69,1.74,6.934,6.934,0,0,0-1.35,4.38,8.47,8.47,0,0,0,2.76,6.66h0Zm5.1-8.4a8.728,8.728,0,0,1-1.2,4.26,10.035,10.035,0,0,1-3,3.42,7.272,7.272,0,0,1-2.46-5.94,6.15,6.15,0,0,1,.99-3.66,3.234,3.234,0,0,1,2.79-1.38q2.88,0,2.88,3.3h0ZM60,42.72a4.43,4.43,0,0,0,3.03-1.14,4.171,4.171,0,0,0,1.29-3.3,7.25,7.25,0,0,0-2.22-5.52,8.906,8.906,0,0,0-6.36-2.1,12.258,12.258,0,0,0-9.69,4.05q-3.57,4.05-3.57,11.19a8.208,8.208,0,0,0,2.49,6.33q2.489,2.31,7.35,2.31A12.134,12.134,0,0,0,57,53.67a10.465,10.465,0,0,0,3.18-1.89,11.017,11.017,0,0,0,1.98-2.61,9.011,9.011,0,0,0,1.08-2.55l-1.08-.48a7.579,7.579,0,0,1-1.2,2.52,13.733,13.733,0,0,1-1.56,2.07,7.613,7.613,0,0,1-2.43,1.71,7.864,7.864,0,0,1-3.39.72,4.087,4.087,0,0,1-3.09-1.29,5.605,5.605,0,0,1-1.23-3.99q0-7.8,2.4-11.76t5.52-3.96q3.119,0,4.26,2.1a5.278,5.278,0,0,0-1.38-.24A4.119,4.119,0,0,0,57,35.31a4.267,4.267,0,0,0-1.26,3.09A4.166,4.166,0,0,0,57,41.46,4.1,4.1,0,0,0,60,42.72Zm15.66,11.82q6.84,0,10.47-4.2t3.63-11.04a8.318,8.318,0,0,0-2.43-6.33,9.449,9.449,0,0,0-6.78-2.31,17.585,17.585,0,0,0-7.26,1.32,9.628,9.628,0,0,0-4.35,3.63,16.872,16.872,0,0,0-2.07,4.8,24.766,24.766,0,0,0-.63,6,7.735,7.735,0,0,0,2.4,5.82q2.4,2.31,7.02,2.31h0Zm-0.39-18.15q2.25-4.59,4.98-4.59t2.73,5.04a27.65,27.65,0,0,1-2.19,11.49q-2.191,4.83-4.98,4.83t-2.79-4.8Q73.019,40.98,75.269,36.39Zm19.29,3.42a42.424,42.424,0,0,0-1.14,7.17,7.565,7.565,0,0,0,1.98,5.55,7.394,7.394,0,0,0,5.52,2.01q4.918,0,7.44-5.04a4.862,4.862,0,0,0,1.56,3.72,6.149,6.149,0,0,0,4.2,1.32,5.623,5.623,0,0,0,4.5-2.16l-0.9-.72a4.271,4.271,0,0,1-3,1.68l4.02-22.68-0.78.18a41.388,41.388,0,0,1-6.48.36l-2.52,13.86a18.061,18.061,0,0,1-2.85,5.64,4.527,4.527,0,0,1-3.39,2.04q-2.461,0-2.46-2.58a47.062,47.062,0,0,1,1.08-7.08,45.589,45.589,0,0,0,1.08-7.5q0-4.919-5.46-4.92a7.544,7.544,0,0,0-3.18.66,3.687,3.687,0,0,0-1.86,1.5l0.9,0.72a4.308,4.308,0,0,1,3-1.68A53.552,53.552,0,0,1,94.559,39.81ZM122.1,31.2l-0.12,1.08h2.94q-2.461,13.38-2.46,16.23a5.442,5.442,0,0,0,1.92,4.44,7.275,7.275,0,0,0,4.8,1.59q6.959,0,9.18-9.48l-1.08-.36a17.748,17.748,0,0,1-2.4,5.58q-1.681,2.58-3.72,2.58a1.751,1.751,0,0,1-2.04-1.92q0-3.18,3-18.66h7.5l0.12-1.08H132.3q1.018-5.22,1.86-9.42l-0.78.18a43.924,43.924,0,0,1-6.6.36l-1.62,8.88H122.1Z" transform="translate(-1.875 -12.594)"/>
</svg>
